<svg width="152" height="58.00000000000001" xmlns="http://www.w3.org/2000/svg">
 <g id="Layer_1">
  <title>Layer 1</title>
  <text style="cursor: move;" transform="matrix(1 0 0 1.53564 0.37037 -31.2966)" stroke="#000" font-style="normal" font-weight="normal" xml:space="preserve" text-anchor="start" font-family="'Rounded Mplus 1c ExtraBold'" font-size="48" id="svg_1" y="56.97075" x="-1.00971" stroke-width="2" fill="#619E73">COVID</text>
  <path stroke="#000" id="svg_2" d="m44.43663,26.72699c-0.1451,0.73276 -0.51573,1.43306 -0.54069,2.18868c0.03321,0.4375 -0.29588,0.6725 -0.7464,0.66423c-0.48454,0.44796 0.05981,1.15591 0.60806,1.33674c0.55952,0.33497 1.25364,-0.03932 1.80789,0.26115c0.73596,0.51311 1.0432,1.42285 0.7893,2.22041c-0.25245,0.65839 1.03982,0.41894 0.55376,-0.10736c-0.37541,-0.51442 0.70767,-0.34434 0.4304,0.14405c-0.05239,0.39204 0.32424,0.51894 0.15662,0.89876c0.43666,0.22331 -0.0366,0.34835 -0.30257,0.39051c-0.62283,0.27691 0.11266,-0.49605 -0.38075,-0.72467c-0.45184,0.08758 -0.14567,0.76241 -0.30076,0.68447c-0.31928,-0.22298 -0.31905,-1.05665 -0.85491,-0.51269c-0.17785,-0.67026 0.14665,-1.3683 -0.10332,-2.03466c0.1024,-0.49765 -0.77857,-0.6693 -0.66715,-0.09211c0.04442,0.88091 -0.25551,1.76007 -0.08337,2.63665c0.23708,0.54066 0.90016,0.78423 1.31632,1.20144c0.34179,0.3217 0.78488,0.66564 1.31685,0.56436c0.60336,-0.02333 1.20784,-0.07303 1.80848,0.01241c0.75549,0.02125 1.33221,-0.51135 1.97694,-0.78494c0.75793,-0.53676 0.6386,-1.49553 0.56304,-2.25924c-0.09265,-0.4715 0.11065,-0.94322 0.07277,-1.41032c-0.54643,-0.5963 -0.99475,0.45182 -0.83909,0.90212c-0.00004,0.56645 0.12193,1.29613 -0.48392,1.66512c-0.49999,-0.01124 -0.97584,0.15073 -1.47968,0.06604c-0.40884,0.21654 -1.07107,0.21098 -1.20602,-0.3045c-0.05388,-0.45778 0.17869,-0.93771 -0.13731,-1.36494c0.27764,0.21327 0.76204,-0.18419 0.49208,0.29394c-0.32927,0.3892 0.27882,0.98894 0.50773,0.41447c0.07595,-0.38544 -0.32852,-0.89699 0.33634,-0.81442c0.13559,0.13595 -0.46302,1.08696 0.35524,0.84663c0.58337,-0.11397 -0.10379,-0.93014 0.68622,-0.93298c0.38233,-0.40145 0.27939,-1.15391 0.86422,-1.45846c0.65208,-0.39359 1.67021,-0.10943 2.13563,-0.77597c0.3967,-0.34109 0.21002,-1.28648 -0.47415,-0.97323c-0.85499,0.07434 -0.17644,-1.03281 -0.20029,-1.44767c0.20145,-0.36133 -0.24465,-1.12193 -0.09104,-1.20262c0.29025,0.39607 0.39421,0.85932 0.33179,1.32219c-0.00536,0.39253 -0.19201,1.45635 0.41986,0.80055c0.20713,-0.45703 0.14689,-0.9747 0.29446,-1.45018c0.28463,-1.02656 -0.225,-2.05369 -0.79315,-2.92319c-0.48388,-0.46809 -1.09818,-0.84123 -1.67506,-1.20862c-0.97032,-0.32548 -2.04171,-0.38379 -3.06652,-0.30222c-0.90649,0.14014 -1.86509,0.28788 -2.58722,0.83911c-0.70378,0.36985 -1.37779,0.86106 -1.65603,1.57172c-0.24247,0.57251 -0.66706,1.15553 -0.47409,1.7915c0.18455,0.53015 0.08667,1.08074 0.11655,1.62261c0.31461,0.6193 0.61164,-0.3169 0.58219,-0.62657c0.01742,-0.58723 0.36479,-1.10701 0.62075,-1.62832l0,0zm5.7785,1.25982c0.64697,0.04135 1.46613,0.36267 1.48379,1.03257c0.09838,0.67226 -0.51067,1.3239 -1.29119,1.25797c-0.70896,-0.05194 -1.16237,-0.59812 -1.1153,-1.21218c-0.23736,-0.44029 0.13201,-0.91184 0.62774,-1.01305c0.09613,-0.02883 0.19494,-0.05041 0.29496,-0.06531l0,0zm-4.36596,0.05726c0.75053,-0.11905 1.60445,0.29621 1.60695,1.03716c0.07049,0.7163 -0.7822,0.85664 -1.36386,1.03609c-0.40249,0.23178 -0.82057,0.01598 -1.15501,-0.21755c-0.43391,-0.40507 -0.30637,-1.22134 0.15179,-1.5911c0.22217,-0.14665 0.49721,-0.2043 0.76012,-0.2646zm2.56821,1.88967c0.36334,0.4454 0.79954,1.1246 0.32966,1.63012c-0.41712,0.29836 -0.46971,-0.42438 -0.90752,-0.084c-0.41072,-0.32082 -0.03191,-0.97364 0.25628,-1.29955c0.09498,-0.09385 0.20368,-0.17647 0.32159,-0.24656z" stroke-width="0" fill="#619E73"/>
 </g>
</svg>