<svg xmlns="http://www.w3.org/2000/svg" width="256" height="256" viewBox="0 0 100 100"><rect width="100" height="100" rx="20" fill="#6ee78a"></rect><path d="M24.73 43.70L24.73 43.70Q24.73 44.50 24.31 45.12Q23.89 45.73 23.33 46.08L23.33 46.08Q22.42 45.48 21.35 45.03Q20.28 44.57 18.81 44.57L18.81 44.57Q16.01 44.57 14.44 46.34Q12.86 48.11 12.86 51.36L12.86 51.36Q12.86 54.72 14.53 56.42Q16.19 58.12 19.09 58.12L19.09 58.12Q20.60 58.12 21.67 57.72Q22.73 57.31 23.64 56.75L23.64 56.75Q24.17 57.17 24.50 57.82Q24.84 58.47 24.84 59.27L24.84 59.27Q24.84 59.98 24.47 60.59Q24.10 61.20 23.19 61.62L23.19 61.62Q22.49 61.97 21.30 62.27Q20.11 62.56 18.36 62.56L18.36 62.56Q16.01 62.56 13.98 61.90Q11.95 61.23 10.45 59.87Q8.94 58.50 8.09 56.39Q7.23 54.27 7.23 51.36L7.23 51.36Q7.23 48.63 8.09 46.53Q8.94 44.44 10.41 43.02Q11.88 41.60 13.84 40.86Q15.80 40.13 18.04 40.13L18.04 40.13Q21.23 40.13 22.98 41.14Q24.73 42.16 24.73 43.70ZM45.03 53.53L45.03 53.53Q45.03 55.60 44.40 57.26Q43.77 58.92 42.60 60.08Q41.42 61.23 39.78 61.87Q38.13 62.49 36.10 62.49L36.10 62.49Q34.08 62.49 32.41 61.88Q30.75 61.27 29.58 60.12Q28.40 58.96 27.77 57.30Q27.14 55.63 27.14 53.53L27.14 53.53Q27.14 51.50 27.79 49.84Q28.44 48.18 29.61 47.02Q30.78 45.87 32.45 45.24Q34.11 44.61 36.10 44.61L36.10 44.61Q38.10 44.61 39.74 45.24Q41.39 45.87 42.56 47.04Q43.73 48.21 44.38 49.86Q45.03 51.50 45.03 53.53ZM36.10 48.81L36.10 48.81Q34.46 48.81 33.55 50.03Q32.64 51.26 32.64 53.53L32.64 53.53Q32.64 55.88 33.53 57.09Q34.42 58.30 36.10 58.30L36.10 58.30Q37.78 58.30 38.68 57.07Q39.57 55.84 39.57 53.53L39.57 53.53Q39.57 51.30 38.66 50.05Q37.75 48.81 36.10 48.81ZM61.48 44.78L61.48 44.78Q62.56 44.78 63.32 45.27Q64.07 45.77 64.07 46.92L64.07 46.92Q64.07 47.44 63.81 48.49Q63.55 49.55 63.13 50.88Q62.70 52.20 62.16 53.73Q61.62 55.25 61.04 56.70Q60.46 58.16 59.91 59.41Q59.34 60.67 58.89 61.52L58.89 61.52Q58.47 61.83 57.61 62.06Q56.75 62.28 55.70 62.28L55.70 62.28Q54.48 62.28 53.60 61.97Q52.73 61.66 52.34 60.95L52.34 60.95Q52.03 60.36 51.59 59.31Q51.15 58.26 50.65 56.95Q50.14 55.63 49.61 54.15Q49.09 52.66 48.60 51.17Q48.11 49.68 47.69 48.34Q47.27 46.99 47.02 45.91L47.02 45.91Q47.44 45.45 48.20 45.12Q48.95 44.78 49.82 44.78L49.82 44.78Q50.94 44.78 51.64 45.26Q52.34 45.73 52.69 46.99L52.69 46.99L54.23 52.52Q54.65 53.99 55.07 55.41Q55.49 56.82 55.70 57.63L55.70 57.63L55.88 57.63Q56.68 54.90 57.49 51.68Q58.29 48.46 58.99 45.38L58.99 45.38Q60.08 44.78 61.48 44.78ZM72.43 47.55L72.43 61.94Q72.08 62.04 71.45 62.13Q70.82 62.21 70.05 62.21L70.05 62.21Q68.48 62.21 67.80 61.71Q67.11 61.20 67.11 59.73L67.11 59.73L67.11 45.34Q67.46 45.24 68.09 45.13Q68.72 45.03 69.49 45.03L69.49 45.03Q71.07 45.03 71.75 45.55Q72.43 46.08 72.43 47.55L72.43 47.55ZM66.80 40.30L66.80 40.30Q66.80 39.11 67.62 38.27Q68.44 37.43 69.77 37.43L69.77 37.43Q71.10 37.43 71.93 38.27Q72.75 39.11 72.75 40.30L72.75 40.30Q72.75 41.53 71.93 42.37Q71.10 43.21 69.77 43.21L69.77 43.21Q68.44 43.21 67.62 42.37Q66.80 41.53 66.80 40.30ZM84.58 44.61L84.58 44.61Q85.38 44.61 86.10 44.73Q86.82 44.85 87.41 45.06L87.41 45.06L87.41 39.18Q87.80 39.08 88.43 38.97Q89.06 38.87 89.83 38.87L89.83 38.87Q91.41 38.87 92.09 39.39Q92.77 39.92 92.77 41.39L92.77 41.39L92.77 58.44Q92.77 59.27 92.42 59.85Q92.07 60.43 91.30 60.92L91.30 60.92Q90.32 61.52 88.78 62.00Q87.24 62.49 85.24 62.49L85.24 62.49Q80.83 62.49 78.30 60.27Q75.76 58.05 75.76 53.60L75.76 53.60Q75.76 51.30 76.44 49.61Q77.13 47.93 78.31 46.81Q79.50 45.69 81.11 45.15Q82.72 44.61 84.58 44.61ZM87.45 57.73L87.45 49.33Q86.99 49.13 86.45 48.97Q85.91 48.81 85.31 48.81L85.31 48.81Q83.42 48.81 82.30 49.96Q81.18 51.12 81.18 53.64L81.18 53.64Q81.18 56.05 82.25 57.16Q83.32 58.26 85.21 58.26L85.21 58.26Q85.94 58.26 86.52 58.10Q87.10 57.95 87.45 57.73L87.45 57.73Z" fill="#fff"></path></svg>